<svg width="40" height="40" viewBox="0 0 40 40" fill="none" xmlns="http://www.w3.org/2000/svg">
<g id="api_FILL0_wght400_GRAD0_opsz48 1">
<path id="Vector" d="M20.0001 24.375L15.6251 20L20.0001 15.625L24.3751 20L20.0001 24.375ZM16.4584 12.125L13.0001 8.66669L20.0001 1.66669L27.0001 8.66669L23.5417 12.125L20.0001 8.58335L16.4584 12.125ZM8.66675 27L1.66675 20L8.66675 13L12.1251 16.4584L8.58342 20L12.1251 23.5417L8.66675 27ZM31.3334 27L27.8751 23.5417L31.4167 20L27.8751 16.4584L31.3334 13L38.3334 20L31.3334 27ZM20.0001 38.3334L13.0001 31.3334L16.4584 27.875L20.0001 31.4167L23.5417 27.875L27.0001 31.3334L20.0001 38.3334Z" fill="#141619"/>
</g>
</svg>
