<svg width="40" height="40" viewBox="0 0 40 40" fill="none" xmlns="http://www.w3.org/2000/svg">
<path id="Logo" d="M38.9602 13.1429C38.39 12.7143 37.2495 12.1429 34.9686 11.5714C34.2558 11.4286 33.543 11.2857 32.6877 11.1429C31.5472 11 30.4068 10.8571 28.8386 10.7143H28.6961C28.4109 10 28.1258 9.28571 27.8407 8.57143C27.6982 8.14286 27.5556 7.71429 27.2705 7.28571V7.14286C26.7003 5.57143 25.9875 4 24.847 2.57143C23.4214 0.857143 21.7107 0 20 0C18.2894 0 16.5787 0.857143 15.2956 2.42857C14.0126 3.85714 13.4424 5.57143 12.7296 7.14286V7.28571C12.587 7.71429 12.3019 8.14286 12.1594 8.57143C11.8743 9.28571 11.5891 10 11.304 10.7143H11.1615C9.73589 10.8571 8.45287 11 7.31241 11.1429C6.45707 11.2857 5.60172 11.4286 5.03149 11.5714C2.75057 12.1429 1.61011 12.7143 1.03988 13.1429C0.897318 13.2857 0.754761 13.5714 0.754761 13.8571L0.897318 15.2857C1.18243 17.4286 1.46755 19.8571 2.03778 22.4286C2.46545 24.4286 2.89313 26.4286 3.60591 28.2857C3.89103 29 4.17614 29.7143 4.46126 30.4286C6.74218 35 10.8764 38.4286 16.0084 39.5714C17.2914 39.8571 18.5745 40 20 40C21.2831 40 22.7086 39.8571 23.9917 39.5714C29.1237 38.4286 33.4005 34.8571 35.6814 30.1429C35.9665 29.5714 36.2516 29 36.3942 28.4286C37.9623 24.1429 38.5325 19.5714 39.1028 15.8571L39.2453 13.8571C39.2453 13.5714 39.1028 13.2857 38.9602 13.1429ZM20 10.2857C18.1468 10.2857 16.5787 10.2857 15.1531 10.4286C15.2956 10.2857 15.2956 10 15.4382 9.85714C15.5808 9.42857 15.8659 9 16.0084 8.57143C16.4361 7.57143 16.8638 6.57143 17.2914 5.71429C17.5766 5.28571 17.7191 5 18.0042 4.57143C18.4319 4.14286 19.1447 3.42857 20.1426 3.42857C21.1405 3.42857 21.8533 4.14286 22.281 4.57143C22.5661 4.85714 22.8512 5.28571 22.9938 5.71429C23.4214 6.57143 23.8491 7.57143 24.2768 8.57143C24.4193 9 24.5619 9.42857 24.847 9.85714C24.9896 10 24.9896 10.2857 25.1321 10.4286C23.4214 10.4286 21.8533 10.2857 20 10.2857Z" fill="#141619"/>
</svg>
