<svg width="40" height="40" viewBox="0 0 40 40" fill="none" xmlns="http://www.w3.org/2000/svg">
<g id="DownloadSimple">
<path id="Vector" d="M35 23.75V32.5C35 33.163 34.7366 33.7989 34.2678 34.2678C33.7989 34.7366 33.163 35 32.5 35H7.5C6.83696 35 6.20107 34.7366 5.73223 34.2678C5.26339 33.7989 5 33.163 5 32.5V23.75C5 23.4185 5.1317 23.1005 5.36612 22.8661C5.60054 22.6317 5.91848 22.5 6.25 22.5C6.58152 22.5 6.89946 22.6317 7.13388 22.8661C7.3683 23.1005 7.5 23.4185 7.5 23.75V32.5H32.5V23.75C32.5 23.4185 32.6317 23.1005 32.8661 22.8661C33.1005 22.6317 33.4185 22.5 33.75 22.5C34.0815 22.5 34.3995 22.6317 34.6339 22.8661C34.8683 23.1005 35 23.4185 35 23.75ZM19.1156 24.6344C19.2317 24.7506 19.3696 24.8428 19.5213 24.9057C19.6731 24.9686 19.8357 25.001 20 25.001C20.1643 25.001 20.3269 24.9686 20.4787 24.9057C20.6304 24.8428 20.7683 24.7506 20.8844 24.6344L27.1344 18.3844C27.2505 18.2682 27.3426 18.1304 27.4055 17.9786C27.4683 17.8269 27.5007 17.6642 27.5007 17.5C27.5007 17.3358 27.4683 17.1731 27.4055 17.0214C27.3426 16.8696 27.2505 16.7318 27.1344 16.6156C27.0182 16.4995 26.8804 16.4074 26.7286 16.3445C26.5769 16.2817 26.4142 16.2493 26.25 16.2493C26.0858 16.2493 25.9231 16.2817 25.7714 16.3445C25.6196 16.4074 25.4818 16.4995 25.3656 16.6156L21.25 20.7328V6.25C21.25 5.91848 21.1183 5.60054 20.8839 5.36612C20.6495 5.1317 20.3315 5 20 5C19.6685 5 19.3505 5.1317 19.1161 5.36612C18.8817 5.60054 18.75 5.91848 18.75 6.25V20.7328L14.6344 16.6156C14.3998 16.3811 14.0817 16.2493 13.75 16.2493C13.4183 16.2493 13.1002 16.3811 12.8656 16.6156C12.6311 16.8502 12.4993 17.1683 12.4993 17.5C12.4993 17.8317 12.6311 18.1498 12.8656 18.3844L19.1156 24.6344Z" fill="black"/>
</g>
</svg>
