<svg width="40" height="41" viewBox="0 0 40 41" fill="none" xmlns="http://www.w3.org/2000/svg">
<g id="Logo">
<path id="XMLID 30" d="M19.9999 40.5C30.9352 40.5 39.7999 31.5457 39.7999 20.5C39.7999 9.45431 30.9352 0.5 19.9999 0.5C9.06471 0.5 0.199951 9.45431 0.199951 20.5C0.199951 31.5457 9.06471 40.5 19.9999 40.5Z" fill="#141619"/>
<path id="XMLID 29" d="M7.84595 18.2901V26.2365C7.84595 27.1963 8.61939 27.9999 9.59171 27.9999H9.6359C10.5861 27.9999 11.3817 27.2186 11.3817 26.2365V18.4463C11.3817 16.5044 12.9506 14.9195 14.8732 14.9195C16.7957 14.9195 18.3647 16.482 18.3647 18.4463V25.0088C18.3647 25.991 19.1602 26.7945 20.1326 26.7945H20.1768C21.1491 26.7945 21.9446 25.991 21.9446 25.0088V18.4463C21.9446 16.5044 23.5136 14.9195 25.4361 14.9195C27.3587 14.9195 28.9277 16.5044 28.9277 18.4463V26.2142C28.9277 27.1963 29.7232 27.9999 30.6955 27.9999H30.7397C31.712 27.9999 32.5076 27.1963 32.5076 26.2142V18.1785C32.5076 18.0892 32.5076 17.9999 32.4855 17.9106C32.2203 14.2276 29.1707 11.3258 25.4582 11.3258C23.3589 11.3258 21.4585 12.2633 20.1768 13.7365C18.8951 12.2633 16.9946 11.3258 14.8953 11.3258C11.1165 11.3258 8.02273 14.3392 7.86805 18.1115C7.84595 18.1785 7.84595 18.2454 7.84595 18.2901Z" fill="white"/>
<path id="XMLID 28" d="M14.5858 29.1162C15.8454 30.9466 17.7459 31.7502 19.9778 31.7502C22.2097 31.7502 24.1102 30.9243 25.3698 29.1162C25.3698 29.1162 25.5245 28.8707 25.414 28.7144C25.3256 28.5805 25.0825 28.8484 25.0825 28.8484C24.1102 29.9198 22.0771 30.6118 19.9778 30.6118C17.8785 30.6118 15.8675 29.9198 14.8731 28.8484C14.8731 28.8484 14.6079 28.5805 14.5416 28.7144C14.4091 28.8707 14.5637 29.1162 14.5858 29.1162Z" fill="white"/>
</g>
</svg>
