<svg width="42" height="40" viewBox="0 0 42 40" fill="none" xmlns="http://www.w3.org/2000/svg">
<g id="Layer 2">
<g id="Layer 1">
<path id="Vector" d="M34.5548 20.2248C34.5793 22.7567 34.29 25.2818 33.6936 27.7418C33.1927 29.8425 32.3187 31.8351 31.1135 33.624C30.0284 35.2254 28.5776 36.5427 26.8824 37.4659C25.6171 38.1386 24.2368 38.565 22.8139 38.7228C18.9862 35.201 20.6068 25.3372 24.6549 24.8638C22.8953 29.6969 25.1533 32.6703 27.062 32.8406C31.0559 33.2016 34.7582 26.4475 34.4971 18.1948C34.5378 18.8624 34.5548 19.5368 34.5548 20.2248Z" fill="#141619"/>
<path id="Vector_2" d="M36.8195 33.6819C32.7205 38.2118 26.706 40.9128 23.8174 39.4346C23.4441 39.2467 23.1012 39.0033 22.8003 38.7125C24.2231 38.5548 25.6035 38.1284 26.8687 37.4557C28.5678 36.5372 30.0233 35.2233 31.1135 33.624C32.3186 31.8351 33.1927 29.8425 33.6936 27.7418C34.29 25.2817 34.5793 22.7567 34.5547 20.2248C34.5547 19.5436 34.5547 18.8624 34.4971 18.1812V18.1574C34.4568 16.8659 34.3196 15.5793 34.0869 14.3086C33.0392 8.53201 29.8082 1.74046 26.784 0C27.5071 0.191416 28.2163 0.432678 28.9064 0.722071C28.9385 0.723998 28.9693 0.735897 28.9945 0.756131C34.2767 2.9948 38.4623 7.24257 40.6371 12.5715C43.3968 19.438 41.8949 28.096 36.8195 33.6819Z" fill="#141619"/>
<path id="Vector_3" d="M17.3453 15.1294C19.1049 10.3065 16.8503 7.33652 14.9381 7.1526C11.0799 6.812 7.47929 13.1029 7.47929 20.9639C7.47929 20.7153 7.47929 20.47 7.47929 20.2146C7.45859 17.6525 7.75469 15.0978 8.36078 12.609C8.87101 10.4635 9.75357 8.42503 10.968 6.5872C12.0565 4.95516 13.5072 3.59919 15.206 2.62603C16.4564 1.93273 17.8289 1.48971 19.2473 1.32153C23.0072 4.87399 21.3798 14.6628 17.3453 15.1294Z" fill="#141619"/>
<path id="Vector_4" d="M15.2297 40C14.7347 39.8603 14.2431 39.7139 13.7718 39.5504L13.643 39.4993C13.548 39.4686 13.4463 39.4278 13.3446 39.3869C13.2429 39.346 13.148 39.3018 13.0429 39.2609C7.75566 37.0145 3.56363 32.764 1.37659 27.4319C-0.72884 22.2207 -0.37285 15.9843 2.13603 10.8379C2.23096 10.6335 2.33267 10.436 2.43438 10.2418C2.64798 9.84672 2.86835 9.45162 3.11246 9.07355C3.56186 8.36678 4.04851 7.68461 4.57032 7.02996C4.74662 6.81879 4.90936 6.60421 5.11617 6.38963C5.13574 6.36413 5.15728 6.34021 5.18059 6.31811L5.27213 6.20911C9.38127 1.74726 15.3246 -0.902603 18.1827 0.558569C18.5721 0.760302 18.9306 1.01725 19.2473 1.32151C17.8289 1.48969 16.4564 1.93271 15.2059 2.62601C13.5036 3.60123 12.0504 4.96084 10.9612 6.5974C9.74677 8.43523 8.86421 10.4737 8.35398 12.6192C7.74332 15.1074 7.44266 17.6621 7.45892 20.2248C7.45892 20.4802 7.45892 20.7255 7.45892 20.9741C7.45892 21.2227 7.45892 21.4169 7.47587 21.6553C7.49281 22.4972 7.5562 23.3375 7.66574 24.1723C7.68947 24.4448 7.73015 24.7071 7.77423 24.9761C7.8183 25.2452 7.84543 25.4462 7.88611 25.6846C7.90306 25.7902 7.9268 25.8958 7.95053 26.0048C8.05224 26.6008 8.18785 27.1832 8.32686 27.7588C8.46587 28.3345 8.63538 28.876 8.81846 29.4073C8.83141 29.4634 8.84957 29.5182 8.87271 29.5708C10.3679 34.1996 12.8632 38.6376 15.2297 40Z" fill="#141619"/>
</g>
</g>
</svg>
