<svg width="137" height="137" viewBox="0 0 137 137" fill="none" xmlns="http://www.w3.org/2000/svg">
<g clip-path="url(#clip0_9528_21358)">
<mask id="mask0_9528_21358" style="mask-type:luminance" maskUnits="userSpaceOnUse" x="53" y="54" width="30" height="29">
<path d="M82.971 54H53V82.4129H82.971V54Z" fill="white"/>
</mask>
<g mask="url(#mask0_9528_21358)">
<path d="M77.6565 68.3658C77.6739 70.1642 77.4676 71.9578 77.042 73.7053C76.6846 75.1974 76.0609 76.6128 75.2009 77.8835C74.4266 79.0211 73.3913 79.9567 72.1815 80.6125C71.2787 81.0904 70.2936 81.3933 69.2783 81.5053C66.5469 79.0037 67.7033 71.9972 70.592 71.6609C69.3364 75.094 70.9477 77.2061 72.3098 77.3271C75.1598 77.5835 77.8017 72.7859 77.6154 66.9238C77.6444 67.398 77.6565 67.8771 77.6565 68.3658Z" fill="black"/>
<path d="M79.2736 77.925C76.3486 81.1427 72.0566 83.0613 69.9953 82.0113C69.729 81.8777 69.4843 81.705 69.2695 81.4984C70.2849 81.3864 71.2699 81.0835 72.1728 80.6056C73.3852 79.9531 74.4238 79.02 75.2018 77.8839C76.0618 76.6132 76.6855 75.1978 77.0429 73.7056C77.4685 71.9582 77.6749 70.1646 77.6574 68.3661C77.6574 67.8823 77.6574 67.3984 77.6163 66.9145V66.8976C77.5875 65.9802 77.4898 65.0663 77.3236 64.1637C76.576 60.0605 74.2703 55.2363 72.1123 54C72.6283 54.136 73.1343 54.3073 73.6268 54.5129C73.6497 54.5143 73.6717 54.5227 73.6897 54.5371C77.459 56.1273 80.446 59.1446 81.9978 62.9298C83.9671 67.8073 82.8953 73.9573 79.2736 77.925Z" fill="black"/>
<path d="M65.377 64.7475C66.6326 61.3217 65.0238 59.212 63.6592 59.0814C60.906 58.8395 58.3367 63.308 58.3367 68.8919C58.3367 68.7153 58.3367 68.5411 58.3367 68.3596C58.3219 66.5397 58.5332 64.725 58.9657 62.9572C59.3298 61.4332 59.9596 59.9852 60.8262 58.6798C61.6029 57.5205 62.6382 56.5573 63.8504 55.8661C64.7427 55.3736 65.7221 55.0589 66.7342 54.9395C69.4173 57.4628 68.256 64.4161 65.377 64.7475Z" fill="black"/>
<path d="M63.8673 82.4121C63.5141 82.3129 63.1633 82.2089 62.827 82.0928L62.735 82.0565C62.6673 82.0347 62.5947 82.0057 62.5221 81.9766C62.4496 81.9476 62.3818 81.9161 62.3068 81.8871C58.5339 80.2915 55.5425 77.2722 53.9818 73.4847C52.4794 69.7831 52.7334 65.3532 54.5237 61.6976C54.5915 61.5524 54.6641 61.4121 54.7366 61.2742C54.8891 60.9936 55.0463 60.7129 55.2205 60.4444C55.5412 59.9423 55.8885 59.4577 56.2608 58.9927C56.3866 58.8427 56.5028 58.6903 56.6504 58.5379C56.6643 58.5198 56.6797 58.5028 56.6963 58.4871L56.7616 58.4097C59.6939 55.2403 63.935 53.3581 65.9746 54.396C66.2524 54.5393 66.5083 54.7218 66.7342 54.9379C65.722 55.0574 64.7427 55.3721 63.8504 55.8645C62.6356 56.5572 61.5986 57.523 60.8213 58.6855C59.9547 59.991 59.3249 61.4389 58.9608 62.9629C58.5251 64.7303 58.3105 66.545 58.3221 68.3653C58.3221 68.5468 58.3221 68.721 58.3221 68.8976C58.3221 69.0742 58.3221 69.2121 58.3342 69.3815C58.3463 69.9795 58.3915 70.5764 58.4697 71.1694C58.4866 71.3629 58.5157 71.5492 58.5471 71.7403C58.5786 71.9315 58.5979 72.0742 58.627 72.2436C58.6391 72.3186 58.656 72.3936 58.6729 72.471C58.7455 72.8944 58.8423 73.3081 58.9415 73.7169C59.0407 74.1258 59.1616 74.5105 59.2923 74.8879C59.3015 74.9277 59.3145 74.9666 59.331 75.004C60.3979 78.2919 62.1786 81.4444 63.8673 82.4121Z" fill="black"/>
</g>
</g>
<path d="M40.5389 0H36.8535V3.68541H40.5389V0Z" fill="black"/>
<path d="M47.91 0H44.2246V3.68541H47.91V0Z" fill="black"/>
<path d="M51.5956 0H47.9102V3.68541H51.5956V0Z" fill="black"/>
<path d="M55.2811 0H51.5957V3.68541H55.2811V0Z" fill="black"/>
<path d="M58.9667 0H55.2812V3.68541H58.9667V0Z" fill="black"/>
<path d="M62.6522 0H58.9668V3.68541H62.6522V0Z" fill="black"/>
<path d="M77.3944 0H73.709V3.68541H77.3944V0Z" fill="black"/>
<path d="M81.078 0H77.3926V3.68541H81.078V0Z" fill="black"/>
<path d="M88.4491 0H84.7637V3.68541H88.4491V0Z" fill="black"/>
<path d="M92.1346 0H88.4492V3.68541H92.1346V0Z" fill="black"/>
<path d="M95.8202 0H92.1348V3.68541H95.8202V0Z" fill="black"/>
<path d="M99.5057 0H95.8203V3.68541H99.5057V0Z" fill="black"/>
<path d="M106.877 0H103.191V3.68541H106.877V0Z" fill="black"/>
<path d="M33.1678 3.68555H29.4824V7.37095H33.1678V3.68555Z" fill="black"/>
<path d="M36.8534 3.68555H33.168V7.37095H36.8534V3.68555Z" fill="black"/>
<path d="M40.5389 3.68555H36.8535V7.37095H40.5389V3.68555Z" fill="black"/>
<path d="M88.4491 3.68555H84.7637V7.37095H88.4491V3.68555Z" fill="black"/>
<path d="M99.5057 3.68555H95.8203V7.37095H99.5057V3.68555Z" fill="black"/>
<path d="M33.1678 7.37109H29.4824V11.0565H33.1678V7.37109Z" fill="black"/>
<path d="M36.8534 7.37109H33.168V11.0565H36.8534V7.37109Z" fill="black"/>
<path d="M47.91 7.37109H44.2246V11.0565H47.91V7.37109Z" fill="black"/>
<path d="M51.5956 7.37109H47.9102V11.0565H51.5956V7.37109Z" fill="black"/>
<path d="M58.9667 7.37109H55.2812V11.0565H58.9667V7.37109Z" fill="black"/>
<path d="M62.6522 7.37109H58.9668V11.0565H62.6522V7.37109Z" fill="black"/>
<path d="M73.7088 7.37109H70.0234V11.0565H73.7088V7.37109Z" fill="black"/>
<path d="M81.078 7.37109H77.3926V11.0565H81.078V7.37109Z" fill="black"/>
<path d="M84.7635 7.37109H81.0781V11.0565H84.7635V7.37109Z" fill="black"/>
<path d="M92.1346 7.37109H88.4492V11.0565H92.1346V7.37109Z" fill="black"/>
<path d="M95.8202 7.37109H92.1348V11.0565H95.8202V7.37109Z" fill="black"/>
<path d="M99.5057 7.37109H95.8203V11.0565H99.5057V7.37109Z" fill="black"/>
<path d="M106.877 7.37109H103.191V11.0565H106.877V7.37109Z" fill="black"/>
<path d="M33.1678 11.0566H29.4824V14.742H33.1678V11.0566Z" fill="black"/>
<path d="M36.8534 11.0566H33.168V14.742H36.8534V11.0566Z" fill="black"/>
<path d="M40.5389 11.0566H36.8535V14.742H40.5389V11.0566Z" fill="black"/>
<path d="M47.91 11.0566H44.2246V14.742H47.91V11.0566Z" fill="black"/>
<path d="M51.5956 11.0566H47.9102V14.742H51.5956V11.0566Z" fill="black"/>
<path d="M55.2811 11.0566H51.5957V14.742H55.2811V11.0566Z" fill="black"/>
<path d="M70.0233 11.0566H66.3379V14.742H70.0233V11.0566Z" fill="black"/>
<path d="M77.3944 11.0566H73.709V14.742H77.3944V11.0566Z" fill="black"/>
<path d="M88.4491 11.0566H84.7637V14.742H88.4491V11.0566Z" fill="black"/>
<path d="M95.8202 11.0566H92.1348V14.742H95.8202V11.0566Z" fill="black"/>
<path d="M99.5057 11.0566H95.8203V14.742H99.5057V11.0566Z" fill="black"/>
<path d="M33.1678 14.7422H29.4824V18.4276H33.1678V14.7422Z" fill="black"/>
<path d="M40.5389 14.7422H36.8535V18.4276H40.5389V14.7422Z" fill="black"/>
<path d="M44.2245 14.7422H40.5391V18.4276H44.2245V14.7422Z" fill="black"/>
<path d="M58.9667 14.7422H55.2812V18.4276H58.9667V14.7422Z" fill="black"/>
<path d="M62.6522 14.7422H58.9668V18.4276H62.6522V14.7422Z" fill="black"/>
<path d="M66.3377 14.7422H62.6523V18.4276H66.3377V14.7422Z" fill="black"/>
<path d="M70.0233 14.7422H66.3379V18.4276H70.0233V14.7422Z" fill="black"/>
<path d="M95.8202 14.7422H92.1348V18.4276H95.8202V14.7422Z" fill="black"/>
<path d="M99.5057 14.7422H95.8203V18.4276H99.5057V14.7422Z" fill="black"/>
<path d="M106.877 14.7422H103.191V18.4276H106.877V14.7422Z" fill="black"/>
<path d="M33.1678 18.4277H29.4824V22.1131H33.1678V18.4277Z" fill="black"/>
<path d="M36.8534 18.4277H33.168V22.1131H36.8534V18.4277Z" fill="black"/>
<path d="M44.2245 18.4277H40.5391V22.1131H44.2245V18.4277Z" fill="black"/>
<path d="M47.91 18.4277H44.2246V22.1131H47.91V18.4277Z" fill="black"/>
<path d="M58.9667 18.4277H55.2812V22.1131H58.9667V18.4277Z" fill="black"/>
<path d="M62.6522 18.4277H58.9668V22.1131H62.6522V18.4277Z" fill="black"/>
<path d="M81.078 18.4277H77.3926V22.1131H81.078V18.4277Z" fill="black"/>
<path d="M92.1346 18.4277H88.4492V22.1131H92.1346V18.4277Z" fill="black"/>
<path d="M106.877 18.4277H103.191V22.1131H106.877V18.4277Z" fill="black"/>
<path d="M33.1678 22.1133H29.4824V25.7987H33.1678V22.1133Z" fill="black"/>
<path d="M40.5389 22.1133H36.8535V25.7987H40.5389V22.1133Z" fill="black"/>
<path d="M47.91 22.1133H44.2246V25.7987H47.91V22.1133Z" fill="black"/>
<path d="M55.2811 22.1133H51.5957V25.7987H55.2811V22.1133Z" fill="black"/>
<path d="M62.6522 22.1133H58.9668V25.7987H62.6522V22.1133Z" fill="black"/>
<path d="M70.0233 22.1133H66.3379V25.7987H70.0233V22.1133Z" fill="black"/>
<path d="M77.3944 22.1133H73.709V25.7987H77.3944V22.1133Z" fill="black"/>
<path d="M84.7635 22.1133H81.0781V25.7987H84.7635V22.1133Z" fill="black"/>
<path d="M92.1346 22.1133H88.4492V25.7987H92.1346V22.1133Z" fill="black"/>
<path d="M99.5057 22.1133H95.8203V25.7987H99.5057V22.1133Z" fill="black"/>
<path d="M106.877 22.1133H103.191V25.7987H106.877V22.1133Z" fill="black"/>
<path d="M44.2245 25.7988H40.5391V29.4842H44.2245V25.7988Z" fill="black"/>
<path d="M51.5956 25.7988H47.9102V29.4842H51.5956V25.7988Z" fill="black"/>
<path d="M55.2811 25.7988H51.5957V29.4842H55.2811V25.7988Z" fill="black"/>
<path d="M62.6522 25.7988H58.9668V29.4842H62.6522V25.7988Z" fill="black"/>
<path d="M70.0233 25.7988H66.3379V29.4842H70.0233V25.7988Z" fill="black"/>
<path d="M77.3944 25.7988H73.709V29.4842H77.3944V25.7988Z" fill="black"/>
<path d="M84.7635 25.7988H81.0781V29.4842H84.7635V25.7988Z" fill="black"/>
<path d="M88.4491 25.7988H84.7637V29.4842H88.4491V25.7988Z" fill="black"/>
<path d="M92.1346 25.7988H88.4492V29.4842H92.1346V25.7988Z" fill="black"/>
<path d="M103.191 25.7988H99.5059V29.4842H103.191V25.7988Z" fill="black"/>
<path d="M106.877 25.7988H103.191V29.4842H106.877V25.7988Z" fill="black"/>
<path d="M11.0565 29.4824H7.37109V33.1678H11.0565V29.4824Z" fill="black"/>
<path d="M22.1131 29.4824H18.4277V33.1678H22.1131V29.4824Z" fill="black"/>
<path d="M25.7987 29.4824H22.1133V33.1678H25.7987V29.4824Z" fill="black"/>
<path d="M29.4842 29.4824H25.7988V33.1678H29.4842V29.4824Z" fill="black"/>
<path d="M33.1678 29.4824H29.4824V33.1678H33.1678V29.4824Z" fill="black"/>
<path d="M47.91 29.4824H44.2246V33.1678H47.91V29.4824Z" fill="black"/>
<path d="M51.5956 29.4824H47.9102V33.1678H51.5956V29.4824Z" fill="black"/>
<path d="M55.2811 29.4824H51.5957V33.1678H55.2811V29.4824Z" fill="black"/>
<path d="M58.9667 29.4824H55.2812V33.1678H58.9667V29.4824Z" fill="black"/>
<path d="M62.6522 29.4824H58.9668V33.1678H62.6522V29.4824Z" fill="black"/>
<path d="M73.7088 29.4824H70.0234V33.1678H73.7088V29.4824Z" fill="black"/>
<path d="M81.078 29.4824H77.3926V33.1678H81.078V29.4824Z" fill="black"/>
<path d="M88.4491 29.4824H84.7637V33.1678H88.4491V29.4824Z" fill="black"/>
<path d="M92.1346 29.4824H88.4492V33.1678H92.1346V29.4824Z" fill="black"/>
<path d="M110.562 29.4824H106.877V33.1678H110.562V29.4824Z" fill="black"/>
<path d="M117.933 29.4824H114.248V33.1678H117.933V29.4824Z" fill="black"/>
<path d="M121.619 29.4824H117.934V33.1678H121.619V29.4824Z" fill="black"/>
<path d="M125.305 29.4824H121.619V33.1678H125.305V29.4824Z" fill="black"/>
<path d="M128.99 29.4824H125.305V33.1678H128.99V29.4824Z" fill="black"/>
<path d="M132.674 29.4824H128.988V33.1678H132.674V29.4824Z" fill="black"/>
<path d="M18.4276 33.168H14.7422V36.8534H18.4276V33.168Z" fill="black"/>
<path d="M22.1131 33.168H18.4277V36.8534H22.1131V33.168Z" fill="black"/>
<path d="M29.4842 33.168H25.7988V36.8534H29.4842V33.168Z" fill="black"/>
<path d="M36.8534 33.168H33.168V36.8534H36.8534V33.168Z" fill="black"/>
<path d="M40.5389 33.168H36.8535V36.8534H40.5389V33.168Z" fill="black"/>
<path d="M51.5956 33.168H47.9102V36.8534H51.5956V33.168Z" fill="black"/>
<path d="M55.2811 33.168H51.5957V36.8534H55.2811V33.168Z" fill="black"/>
<path d="M62.6522 33.168H58.9668V36.8534H62.6522V33.168Z" fill="black"/>
<path d="M92.1346 33.168H88.4492V36.8534H92.1346V33.168Z" fill="black"/>
<path d="M95.8202 33.168H92.1348V36.8534H95.8202V33.168Z" fill="black"/>
<path d="M103.191 33.168H99.5059V36.8534H103.191V33.168Z" fill="black"/>
<path d="M106.877 33.168H103.191V36.8534H106.877V33.168Z" fill="black"/>
<path d="M110.562 33.168H106.877V36.8534H110.562V33.168Z" fill="black"/>
<path d="M114.248 33.168H110.562V36.8534H114.248V33.168Z" fill="black"/>
<path d="M117.933 33.168H114.248V36.8534H117.933V33.168Z" fill="black"/>
<path d="M136.359 33.168H132.674V36.8534H136.359V33.168Z" fill="black"/>
<path d="M7.37095 36.8535H3.68555V40.5389H7.37095V36.8535Z" fill="black"/>
<path d="M18.4276 36.8535H14.7422V40.5389H18.4276V36.8535Z" fill="black"/>
<path d="M25.7987 36.8535H22.1133V40.5389H25.7987V36.8535Z" fill="black"/>
<path d="M36.8534 36.8535H33.168V40.5389H36.8534V36.8535Z" fill="black"/>
<path d="M44.2245 36.8535H40.5391V40.5389H44.2245V36.8535Z" fill="black"/>
<path d="M62.6522 36.8535H58.9668V40.5389H62.6522V36.8535Z" fill="black"/>
<path d="M70.0233 36.8535H66.3379V40.5389H70.0233V36.8535Z" fill="black"/>
<path d="M103.191 36.8535H99.5059V40.5389H103.191V36.8535Z" fill="black"/>
<path d="M110.562 36.8535H106.877V40.5389H110.562V36.8535Z" fill="black"/>
<path d="M114.248 36.8535H110.562V40.5389H114.248V36.8535Z" fill="black"/>
<path d="M121.619 36.8535H117.934V40.5389H121.619V36.8535Z" fill="black"/>
<path d="M125.305 36.8535H121.619V40.5389H125.305V36.8535Z" fill="black"/>
<path d="M136.359 36.8535H132.674V40.5389H136.359V36.8535Z" fill="black"/>
<path d="M7.37095 40.5391H3.68555V44.2245H7.37095V40.5391Z" fill="black"/>
<path d="M18.4276 40.5391H14.7422V44.2245H18.4276V40.5391Z" fill="black"/>
<path d="M29.4842 40.5391H25.7988V44.2245H29.4842V40.5391Z" fill="black"/>
<path d="M33.1678 40.5391H29.4824V44.2245H33.1678V40.5391Z" fill="black"/>
<path d="M36.8534 40.5391H33.168V44.2245H36.8534V40.5391Z" fill="black"/>
<path d="M47.91 40.5391H44.2246V44.2245H47.91V40.5391Z" fill="black"/>
<path d="M51.5956 40.5391H47.9102V44.2245H51.5956V40.5391Z" fill="black"/>
<path d="M55.2811 40.5391H51.5957V44.2245H55.2811V40.5391Z" fill="black"/>
<path d="M58.9667 40.5391H55.2812V44.2245H58.9667V40.5391Z" fill="black"/>
<path d="M62.6522 40.5391H58.9668V44.2245H62.6522V40.5391Z" fill="black"/>
<path d="M66.3377 40.5391H62.6523V44.2245H66.3377V40.5391Z" fill="black"/>
<path d="M77.3944 40.5391H73.709V44.2245H77.3944V40.5391Z" fill="black"/>
<path d="M84.7635 40.5391H81.0781V44.2245H84.7635V40.5391Z" fill="black"/>
<path d="M92.1346 40.5391H88.4492V44.2245H92.1346V40.5391Z" fill="black"/>
<path d="M99.5057 40.5391H95.8203V44.2245H99.5057V40.5391Z" fill="black"/>
<path d="M117.933 40.5391H114.248V44.2245H117.933V40.5391Z" fill="black"/>
<path d="M125.305 40.5391H121.619V44.2245H125.305V40.5391Z" fill="black"/>
<path d="M136.359 40.5391H132.674V44.2245H136.359V40.5391Z" fill="black"/>
<path d="M14.742 44.2246H11.0566V47.91H14.742V44.2246Z" fill="black"/>
<path d="M22.1131 44.2246H18.4277V47.91H22.1131V44.2246Z" fill="black"/>
<path d="M25.7987 44.2246H22.1133V47.91H25.7987V44.2246Z" fill="black"/>
<path d="M40.5389 44.2246H36.8535V47.91H40.5389V44.2246Z" fill="black"/>
<path d="M62.6522 44.2246H58.9668V47.91H62.6522V44.2246Z" fill="black"/>
<path d="M66.3377 44.2246H62.6523V47.91H66.3377V44.2246Z" fill="black"/>
<path d="M70.0233 44.2246H66.3379V47.91H70.0233V44.2246Z" fill="black"/>
<path d="M73.7088 44.2246H70.0234V47.91H73.7088V44.2246Z" fill="black"/>
<path d="M84.7635 44.2246H81.0781V47.91H84.7635V44.2246Z" fill="black"/>
<path d="M88.4491 44.2246H84.7637V47.91H88.4491V44.2246Z" fill="black"/>
<path d="M92.1346 44.2246H88.4492V47.91H92.1346V44.2246Z" fill="black"/>
<path d="M103.191 44.2246H99.5059V47.91H103.191V44.2246Z" fill="black"/>
<path d="M106.877 44.2246H103.191V47.91H106.877V44.2246Z" fill="black"/>
<path d="M114.248 44.2246H110.562V47.91H114.248V44.2246Z" fill="black"/>
<path d="M125.305 44.2246H121.619V47.91H125.305V44.2246Z" fill="black"/>
<path d="M132.674 44.2246H128.988V47.91H132.674V44.2246Z" fill="black"/>
<path d="M136.359 44.2246H132.674V47.91H136.359V44.2246Z" fill="black"/>
<path d="M3.68541 47.9102H0V51.5956H3.68541V47.9102Z" fill="black"/>
<path d="M11.0565 47.9102H7.37109V51.5956H11.0565V47.9102Z" fill="black"/>
<path d="M14.742 47.9102H11.0566V51.5956H14.742V47.9102Z" fill="black"/>
<path d="M44.2245 47.9102H40.5391V51.5956H44.2245V47.9102Z" fill="black"/>
<path d="M92.1346 47.9102H88.4492V51.5956H92.1346V47.9102Z" fill="black"/>
<path d="M95.8202 47.9102H92.1348V51.5956H95.8202V47.9102Z" fill="black"/>
<path d="M103.191 47.9102H99.5059V51.5956H103.191V47.9102Z" fill="black"/>
<path d="M106.877 47.9102H103.191V51.5956H106.877V47.9102Z" fill="black"/>
<path d="M110.562 47.9102H106.877V51.5956H110.562V47.9102Z" fill="black"/>
<path d="M114.248 47.9102H110.562V51.5956H114.248V47.9102Z" fill="black"/>
<path d="M117.933 47.9102H114.248V51.5956H117.933V47.9102Z" fill="black"/>
<path d="M128.99 47.9102H125.305V51.5956H128.99V47.9102Z" fill="black"/>
<path d="M136.359 47.9102H132.674V51.5956H136.359V47.9102Z" fill="black"/>
<path d="M3.68541 51.5957H0V55.2811H3.68541V51.5957Z" fill="black"/>
<path d="M14.742 51.5957H11.0566V55.2811H14.742V51.5957Z" fill="black"/>
<path d="M18.4276 51.5957H14.7422V55.2811H18.4276V51.5957Z" fill="black"/>
<path d="M22.1131 51.5957H18.4277V55.2811H22.1131V51.5957Z" fill="black"/>
<path d="M25.7987 51.5957H22.1133V55.2811H25.7987V51.5957Z" fill="black"/>
<path d="M29.4842 51.5957H25.7988V55.2811H29.4842V51.5957Z" fill="black"/>
<path d="M36.8534 51.5957H33.168V55.2811H36.8534V51.5957Z" fill="black"/>
<path d="M44.2245 51.5957H40.5391V55.2811H44.2245V51.5957Z" fill="black"/>
<path d="M92.1346 51.5957H88.4492V55.2811H92.1346V51.5957Z" fill="black"/>
<path d="M103.191 51.5957H99.5059V55.2811H103.191V51.5957Z" fill="black"/>
<path d="M110.562 51.5957H106.877V55.2811H110.562V51.5957Z" fill="black"/>
<path d="M121.619 51.5957H117.934V55.2811H121.619V51.5957Z" fill="black"/>
<path d="M125.305 51.5957H121.619V55.2811H125.305V51.5957Z" fill="black"/>
<path d="M128.99 51.5957H125.305V55.2811H128.99V51.5957Z" fill="black"/>
<path d="M136.359 51.5957H132.674V55.2811H136.359V51.5957Z" fill="black"/>
<path d="M11.0565 55.2812H7.37109V58.9667H11.0565V55.2812Z" fill="black"/>
<path d="M22.1131 55.2812H18.4277V58.9667H22.1131V55.2812Z" fill="black"/>
<path d="M36.8534 55.2812H33.168V58.9667H36.8534V55.2812Z" fill="black"/>
<path d="M40.5389 55.2812H36.8535V58.9667H40.5389V55.2812Z" fill="black"/>
<path d="M99.5057 55.2812H95.8203V58.9667H99.5057V55.2812Z" fill="black"/>
<path d="M103.191 55.2812H99.5059V58.9667H103.191V55.2812Z" fill="black"/>
<path d="M117.933 55.2812H114.248V58.9667H117.933V55.2812Z" fill="black"/>
<path d="M125.305 55.2812H121.619V58.9667H125.305V55.2812Z" fill="black"/>
<path d="M136.359 55.2812H132.674V58.9667H136.359V55.2812Z" fill="black"/>
<path d="M11.0565 58.9668H7.37109V62.6522H11.0565V58.9668Z" fill="black"/>
<path d="M14.742 58.9668H11.0566V62.6522H14.742V58.9668Z" fill="black"/>
<path d="M25.7987 58.9668H22.1133V62.6522H25.7987V58.9668Z" fill="black"/>
<path d="M29.4842 58.9668H25.7988V62.6522H29.4842V58.9668Z" fill="black"/>
<path d="M40.5389 58.9668H36.8535V62.6522H40.5389V58.9668Z" fill="black"/>
<path d="M44.2245 58.9668H40.5391V62.6522H44.2245V58.9668Z" fill="black"/>
<path d="M92.1346 58.9668H88.4492V62.6522H92.1346V58.9668Z" fill="black"/>
<path d="M103.191 58.9668H99.5059V62.6522H103.191V58.9668Z" fill="black"/>
<path d="M110.562 58.9668H106.877V62.6522H110.562V58.9668Z" fill="black"/>
<path d="M114.248 58.9668H110.562V62.6522H114.248V58.9668Z" fill="black"/>
<path d="M132.674 58.9668H128.988V62.6522H132.674V58.9668Z" fill="black"/>
<path d="M136.359 58.9668H132.674V62.6522H136.359V58.9668Z" fill="black"/>
<path d="M18.4276 62.6523H14.7422V66.3377H18.4276V62.6523Z" fill="black"/>
<path d="M22.1131 62.6523H18.4277V66.3377H22.1131V62.6523Z" fill="black"/>
<path d="M33.1678 62.6523H29.4824V66.3377H33.1678V62.6523Z" fill="black"/>
<path d="M36.8534 62.6523H33.168V66.3377H36.8534V62.6523Z" fill="black"/>
<path d="M40.5389 62.6523H36.8535V66.3377H40.5389V62.6523Z" fill="black"/>
<path d="M47.91 62.6523H44.2246V66.3377H47.91V62.6523Z" fill="black"/>
<path d="M92.1346 62.6523H88.4492V66.3377H92.1346V62.6523Z" fill="black"/>
<path d="M95.8202 62.6523H92.1348V66.3377H95.8202V62.6523Z" fill="black"/>
<path d="M103.191 62.6523H99.5059V66.3377H103.191V62.6523Z" fill="black"/>
<path d="M106.877 62.6523H103.191V66.3377H106.877V62.6523Z" fill="black"/>
<path d="M114.248 62.6523H110.562V66.3377H114.248V62.6523Z" fill="black"/>
<path d="M117.933 62.6523H114.248V66.3377H117.933V62.6523Z" fill="black"/>
<path d="M128.99 62.6523H125.305V66.3377H128.99V62.6523Z" fill="black"/>
<path d="M136.359 62.6523H132.674V66.3377H136.359V62.6523Z" fill="black"/>
<path d="M3.68541 66.3379H0V70.0233H3.68541V66.3379Z" fill="black"/>
<path d="M7.37095 66.3379H3.68555V70.0233H7.37095V66.3379Z" fill="black"/>
<path d="M22.1131 66.3379H18.4277V70.0233H22.1131V66.3379Z" fill="black"/>
<path d="M25.7987 66.3379H22.1133V70.0233H25.7987V66.3379Z" fill="black"/>
<path d="M29.4842 66.3379H25.7988V70.0233H29.4842V66.3379Z" fill="black"/>
<path d="M36.8534 66.3379H33.168V70.0233H36.8534V66.3379Z" fill="black"/>
<path d="M92.1346 66.3379H88.4492V70.0233H92.1346V66.3379Z" fill="black"/>
<path d="M103.191 66.3379H99.5059V70.0233H103.191V66.3379Z" fill="black"/>
<path d="M110.562 66.3379H106.877V70.0233H110.562V66.3379Z" fill="black"/>
<path d="M121.619 66.3379H117.934V70.0233H121.619V66.3379Z" fill="black"/>
<path d="M128.99 66.3379H125.305V70.0233H128.99V66.3379Z" fill="black"/>
<path d="M136.359 66.3379H132.674V70.0233H136.359V66.3379Z" fill="black"/>
<path d="M7.37095 70.0234H3.68555V73.7088H7.37095V70.0234Z" fill="black"/>
<path d="M11.0565 70.0234H7.37109V73.7088H11.0565V70.0234Z" fill="black"/>
<path d="M14.742 70.0234H11.0566V73.7088H14.742V70.0234Z" fill="black"/>
<path d="M29.4842 70.0234H25.7988V73.7088H29.4842V70.0234Z" fill="black"/>
<path d="M33.1678 70.0234H29.4824V73.7088H33.1678V70.0234Z" fill="black"/>
<path d="M36.8534 70.0234H33.168V73.7088H36.8534V70.0234Z" fill="black"/>
<path d="M40.5389 70.0234H36.8535V73.7088H40.5389V70.0234Z" fill="black"/>
<path d="M47.91 70.0234H44.2246V73.7088H47.91V70.0234Z" fill="black"/>
<path d="M92.1346 70.0234H88.4492V73.7088H92.1346V70.0234Z" fill="black"/>
<path d="M117.933 70.0234H114.248V73.7088H117.933V70.0234Z" fill="black"/>
<path d="M125.305 70.0234H121.619V73.7088H125.305V70.0234Z" fill="black"/>
<path d="M136.359 70.0234H132.674V73.7088H136.359V70.0234Z" fill="black"/>
<path d="M7.37095 73.709H3.68555V77.3944H7.37095V73.709Z" fill="black"/>
<path d="M18.4276 73.709H14.7422V77.3944H18.4276V73.709Z" fill="black"/>
<path d="M22.1131 73.709H18.4277V77.3944H22.1131V73.709Z" fill="black"/>
<path d="M25.7987 73.709H22.1133V77.3944H25.7987V73.709Z" fill="black"/>
<path d="M29.4842 73.709H25.7988V77.3944H29.4842V73.709Z" fill="black"/>
<path d="M40.5389 73.709H36.8535V77.3944H40.5389V73.709Z" fill="black"/>
<path d="M99.5057 73.709H95.8203V77.3944H99.5057V73.709Z" fill="black"/>
<path d="M106.877 73.709H103.191V77.3944H106.877V73.709Z" fill="black"/>
<path d="M110.562 73.709H106.877V77.3944H110.562V73.709Z" fill="black"/>
<path d="M114.248 73.709H110.562V77.3944H114.248V73.709Z" fill="black"/>
<path d="M132.674 73.709H128.988V77.3944H132.674V73.709Z" fill="black"/>
<path d="M14.742 77.3926H11.0566V81.078H14.742V77.3926Z" fill="black"/>
<path d="M18.4276 77.3926H14.7422V81.078H18.4276V77.3926Z" fill="black"/>
<path d="M22.1131 77.3926H18.4277V81.078H22.1131V77.3926Z" fill="black"/>
<path d="M33.1678 77.3926H29.4824V81.078H33.1678V77.3926Z" fill="black"/>
<path d="M47.91 77.3926H44.2246V81.078H47.91V77.3926Z" fill="black"/>
<path d="M92.1346 77.3926H88.4492V81.078H92.1346V77.3926Z" fill="black"/>
<path d="M95.8202 77.3926H92.1348V81.078H95.8202V77.3926Z" fill="black"/>
<path d="M103.191 77.3926H99.5059V81.078H103.191V77.3926Z" fill="black"/>
<path d="M114.248 77.3926H110.562V81.078H114.248V77.3926Z" fill="black"/>
<path d="M117.933 77.3926H114.248V81.078H117.933V77.3926Z" fill="black"/>
<path d="M128.99 77.3926H125.305V81.078H128.99V77.3926Z" fill="black"/>
<path d="M136.359 77.3926H132.674V81.078H136.359V77.3926Z" fill="black"/>
<path d="M3.68541 81.0781H0V84.7635H3.68541V81.0781Z" fill="black"/>
<path d="M7.37095 81.0781H3.68555V84.7635H7.37095V81.0781Z" fill="black"/>
<path d="M11.0565 81.0781H7.37109V84.7635H11.0565V81.0781Z" fill="black"/>
<path d="M14.742 81.0781H11.0566V84.7635H14.742V81.0781Z" fill="black"/>
<path d="M25.7987 81.0781H22.1133V84.7635H25.7987V81.0781Z" fill="black"/>
<path d="M33.1678 81.0781H29.4824V84.7635H33.1678V81.0781Z" fill="black"/>
<path d="M36.8534 81.0781H33.168V84.7635H36.8534V81.0781Z" fill="black"/>
<path d="M44.2245 81.0781H40.5391V84.7635H44.2245V81.0781Z" fill="black"/>
<path d="M92.1346 81.0781H88.4492V84.7635H92.1346V81.0781Z" fill="black"/>
<path d="M99.5057 81.0781H95.8203V84.7635H99.5057V81.0781Z" fill="black"/>
<path d="M103.191 81.0781H99.5059V84.7635H103.191V81.0781Z" fill="black"/>
<path d="M106.877 81.0781H103.191V84.7635H106.877V81.0781Z" fill="black"/>
<path d="M110.562 81.0781H106.877V84.7635H110.562V81.0781Z" fill="black"/>
<path d="M117.933 81.0781H114.248V84.7635H117.933V81.0781Z" fill="black"/>
<path d="M121.619 81.0781H117.934V84.7635H121.619V81.0781Z" fill="black"/>
<path d="M128.99 81.0781H125.305V84.7635H128.99V81.0781Z" fill="black"/>
<path d="M136.359 81.0781H132.674V84.7635H136.359V81.0781Z" fill="black"/>
<path d="M7.37095 84.7637H3.68555V88.4491H7.37095V84.7637Z" fill="black"/>
<path d="M11.0565 84.7637H7.37109V88.4491H11.0565V84.7637Z" fill="black"/>
<path d="M29.4842 84.7637H25.7988V88.4491H29.4842V84.7637Z" fill="black"/>
<path d="M33.1678 84.7637H29.4824V88.4491H33.1678V84.7637Z" fill="black"/>
<path d="M36.8534 84.7637H33.168V88.4491H36.8534V84.7637Z" fill="black"/>
<path d="M40.5389 84.7637H36.8535V88.4491H40.5389V84.7637Z" fill="black"/>
<path d="M47.91 84.7637H44.2246V88.4491H47.91V84.7637Z" fill="black"/>
<path d="M92.1346 84.7637H88.4492V88.4491H92.1346V84.7637Z" fill="black"/>
<path d="M99.5057 84.7637H95.8203V88.4491H99.5057V84.7637Z" fill="black"/>
<path d="M103.191 84.7637H99.5059V88.4491H103.191V84.7637Z" fill="black"/>
<path d="M117.933 84.7637H114.248V88.4491H117.933V84.7637Z" fill="black"/>
<path d="M125.305 84.7637H121.619V88.4491H125.305V84.7637Z" fill="black"/>
<path d="M132.674 84.7637H128.988V88.4491H132.674V84.7637Z" fill="black"/>
<path d="M136.359 84.7637H132.674V88.4491H136.359V84.7637Z" fill="black"/>
<path d="M25.7987 88.4492H22.1133V92.1346H25.7987V88.4492Z" fill="black"/>
<path d="M29.4842 88.4492H25.7988V92.1346H29.4842V88.4492Z" fill="black"/>
<path d="M33.1678 88.4492H29.4824V92.1346H33.1678V88.4492Z" fill="black"/>
<path d="M44.2245 88.4492H40.5391V92.1346H44.2245V88.4492Z" fill="black"/>
<path d="M47.91 88.4492H44.2246V92.1346H47.91V88.4492Z" fill="black"/>
<path d="M51.5956 88.4492H47.9102V92.1346H51.5956V88.4492Z" fill="black"/>
<path d="M66.3377 88.4492H62.6523V92.1346H66.3377V88.4492Z" fill="black"/>
<path d="M70.0233 88.4492H66.3379V92.1346H70.0233V88.4492Z" fill="black"/>
<path d="M88.4491 88.4492H84.7637V92.1346H88.4491V88.4492Z" fill="black"/>
<path d="M95.8202 88.4492H92.1348V92.1346H95.8202V88.4492Z" fill="black"/>
<path d="M99.5057 88.4492H95.8203V92.1346H99.5057V88.4492Z" fill="black"/>
<path d="M106.877 88.4492H103.191V92.1346H106.877V88.4492Z" fill="black"/>
<path d="M110.562 88.4492H106.877V92.1346H110.562V88.4492Z" fill="black"/>
<path d="M114.248 88.4492H110.562V92.1346H114.248V88.4492Z" fill="black"/>
<path d="M117.933 88.4492H114.248V92.1346H117.933V88.4492Z" fill="black"/>
<path d="M11.0565 92.1348H7.37109V95.8202H11.0565V92.1348Z" fill="black"/>
<path d="M14.742 92.1348H11.0566V95.8202H14.742V92.1348Z" fill="black"/>
<path d="M18.4276 92.1348H14.7422V95.8202H18.4276V92.1348Z" fill="black"/>
<path d="M22.1131 92.1348H18.4277V95.8202H22.1131V92.1348Z" fill="black"/>
<path d="M29.4842 92.1348H25.7988V95.8202H29.4842V92.1348Z" fill="black"/>
<path d="M36.8534 92.1348H33.168V95.8202H36.8534V92.1348Z" fill="black"/>
<path d="M47.91 92.1348H44.2246V95.8202H47.91V92.1348Z" fill="black"/>
<path d="M55.2811 92.1348H51.5957V95.8202H55.2811V92.1348Z" fill="black"/>
<path d="M58.9667 92.1348H55.2812V95.8202H58.9667V92.1348Z" fill="black"/>
<path d="M62.6522 92.1348H58.9668V95.8202H62.6522V92.1348Z" fill="black"/>
<path d="M66.3377 92.1348H62.6523V95.8202H66.3377V92.1348Z" fill="black"/>
<path d="M95.8202 92.1348H92.1348V95.8202H95.8202V92.1348Z" fill="black"/>
<path d="M103.191 92.1348H99.5059V95.8202H103.191V92.1348Z" fill="black"/>
<path d="M106.877 92.1348H103.191V95.8202H106.877V92.1348Z" fill="black"/>
<path d="M114.248 92.1348H110.562V95.8202H114.248V92.1348Z" fill="black"/>
<path d="M117.933 92.1348H114.248V95.8202H117.933V92.1348Z" fill="black"/>
<path d="M128.99 92.1348H125.305V95.8202H128.99V92.1348Z" fill="black"/>
<path d="M136.359 92.1348H132.674V95.8202H136.359V92.1348Z" fill="black"/>
<path d="M3.68541 95.8203H0V99.5057H3.68541V95.8203Z" fill="black"/>
<path d="M7.37095 95.8203H3.68555V99.5057H7.37095V95.8203Z" fill="black"/>
<path d="M18.4276 95.8203H14.7422V99.5057H18.4276V95.8203Z" fill="black"/>
<path d="M22.1131 95.8203H18.4277V99.5057H22.1131V95.8203Z" fill="black"/>
<path d="M25.7987 95.8203H22.1133V99.5057H25.7987V95.8203Z" fill="black"/>
<path d="M29.4842 95.8203H25.7988V99.5057H29.4842V95.8203Z" fill="black"/>
<path d="M33.1678 95.8203H29.4824V99.5057H33.1678V95.8203Z" fill="black"/>
<path d="M36.8534 95.8203H33.168V99.5057H36.8534V95.8203Z" fill="black"/>
<path d="M40.5389 95.8203H36.8535V99.5057H40.5389V95.8203Z" fill="black"/>
<path d="M44.2245 95.8203H40.5391V99.5057H44.2245V95.8203Z" fill="black"/>
<path d="M51.5956 95.8203H47.9102V99.5057H51.5956V95.8203Z" fill="black"/>
<path d="M55.2811 95.8203H51.5957V99.5057H55.2811V95.8203Z" fill="black"/>
<path d="M58.9667 95.8203H55.2812V99.5057H58.9667V95.8203Z" fill="black"/>
<path d="M62.6522 95.8203H58.9668V99.5057H62.6522V95.8203Z" fill="black"/>
<path d="M84.7635 95.8203H81.0781V99.5057H84.7635V95.8203Z" fill="black"/>
<path d="M88.4491 95.8203H84.7637V99.5057H88.4491V95.8203Z" fill="black"/>
<path d="M103.191 95.8203H99.5059V99.5057H103.191V95.8203Z" fill="black"/>
<path d="M106.877 95.8203H103.191V99.5057H106.877V95.8203Z" fill="black"/>
<path d="M110.562 95.8203H106.877V99.5057H110.562V95.8203Z" fill="black"/>
<path d="M114.248 95.8203H110.562V99.5057H114.248V95.8203Z" fill="black"/>
<path d="M117.933 95.8203H114.248V99.5057H117.933V95.8203Z" fill="black"/>
<path d="M121.619 95.8203H117.934V99.5057H121.619V95.8203Z" fill="black"/>
<path d="M128.99 95.8203H125.305V99.5057H128.99V95.8203Z" fill="black"/>
<path d="M136.359 95.8203H132.674V99.5057H136.359V95.8203Z" fill="black"/>
<path d="M18.4276 99.5059H14.7422V103.191H18.4276V99.5059Z" fill="black"/>
<path d="M22.1131 99.5059H18.4277V103.191H22.1131V99.5059Z" fill="black"/>
<path d="M29.4842 99.5059H25.7988V103.191H29.4842V99.5059Z" fill="black"/>
<path d="M40.5389 99.5059H36.8535V103.191H40.5389V99.5059Z" fill="black"/>
<path d="M44.2245 99.5059H40.5391V103.191H44.2245V99.5059Z" fill="black"/>
<path d="M47.91 99.5059H44.2246V103.191H47.91V99.5059Z" fill="black"/>
<path d="M55.2811 99.5059H51.5957V103.191H55.2811V99.5059Z" fill="black"/>
<path d="M58.9667 99.5059H55.2812V103.191H58.9667V99.5059Z" fill="black"/>
<path d="M62.6522 99.5059H58.9668V103.191H62.6522V99.5059Z" fill="black"/>
<path d="M66.3377 99.5059H62.6523V103.191H66.3377V99.5059Z" fill="black"/>
<path d="M77.3944 99.5059H73.709V103.191H77.3944V99.5059Z" fill="black"/>
<path d="M81.078 99.5059H77.3926V103.191H81.078V99.5059Z" fill="black"/>
<path d="M103.191 99.5059H99.5059V103.191H103.191V99.5059Z" fill="black"/>
<path d="M106.877 99.5059H103.191V103.191H106.877V99.5059Z" fill="black"/>
<path d="M110.562 99.5059H106.877V103.191H110.562V99.5059Z" fill="black"/>
<path d="M114.248 99.5059H110.562V103.191H114.248V99.5059Z" fill="black"/>
<path d="M117.933 99.5059H114.248V103.191H117.933V99.5059Z" fill="black"/>
<path d="M125.305 99.5059H121.619V103.191H125.305V99.5059Z" fill="black"/>
<path d="M132.674 99.5059H128.988V103.191H132.674V99.5059Z" fill="black"/>
<path d="M136.359 99.5059H132.674V103.191H136.359V99.5059Z" fill="black"/>
<path d="M3.68541 103.191H0V106.877H3.68541V103.191Z" fill="black"/>
<path d="M7.37095 103.191H3.68555V106.877H7.37095V103.191Z" fill="black"/>
<path d="M14.742 103.191H11.0566V106.877H14.742V103.191Z" fill="black"/>
<path d="M18.4276 103.191H14.7422V106.877H18.4276V103.191Z" fill="black"/>
<path d="M22.1131 103.191H18.4277V106.877H22.1131V103.191Z" fill="black"/>
<path d="M25.7987 103.191H22.1133V106.877H25.7987V103.191Z" fill="black"/>
<path d="M33.1678 103.191H29.4824V106.877H33.1678V103.191Z" fill="black"/>
<path d="M36.8534 103.191H33.168V106.877H36.8534V103.191Z" fill="black"/>
<path d="M40.5389 103.191H36.8535V106.877H40.5389V103.191Z" fill="black"/>
<path d="M44.2245 103.191H40.5391V106.877H44.2245V103.191Z" fill="black"/>
<path d="M47.91 103.191H44.2246V106.877H47.91V103.191Z" fill="black"/>
<path d="M70.0233 103.191H66.3379V106.877H70.0233V103.191Z" fill="black"/>
<path d="M73.7088 103.191H70.0234V106.877H73.7088V103.191Z" fill="black"/>
<path d="M81.078 103.191H77.3926V106.877H81.078V103.191Z" fill="black"/>
<path d="M88.4491 103.191H84.7637V106.877H88.4491V103.191Z" fill="black"/>
<path d="M92.1346 103.191H88.4492V106.877H92.1346V103.191Z" fill="black"/>
<path d="M106.877 103.191H103.191V106.877H106.877V103.191Z" fill="black"/>
<path d="M110.562 103.191H106.877V106.877H110.562V103.191Z" fill="black"/>
<path d="M114.248 103.191H110.562V106.877H114.248V103.191Z" fill="black"/>
<path d="M117.933 103.191H114.248V106.877H117.933V103.191Z" fill="black"/>
<path d="M121.619 103.191H117.934V106.877H121.619V103.191Z" fill="black"/>
<path d="M33.1678 106.877H29.4824V110.562H33.1678V106.877Z" fill="black"/>
<path d="M36.8534 106.877H33.168V110.562H36.8534V106.877Z" fill="black"/>
<path d="M44.2245 106.877H40.5391V110.562H44.2245V106.877Z" fill="black"/>
<path d="M51.5956 106.877H47.9102V110.562H51.5956V106.877Z" fill="black"/>
<path d="M55.2811 106.877H51.5957V110.562H55.2811V106.877Z" fill="black"/>
<path d="M62.6522 106.877H58.9668V110.562H62.6522V106.877Z" fill="black"/>
<path d="M66.3377 106.877H62.6523V110.562H66.3377V106.877Z" fill="black"/>
<path d="M73.7088 106.877H70.0234V110.562H73.7088V106.877Z" fill="black"/>
<path d="M81.078 106.877H77.3926V110.562H81.078V106.877Z" fill="black"/>
<path d="M88.4491 106.877H84.7637V110.562H88.4491V106.877Z" fill="black"/>
<path d="M92.1346 106.877H88.4492V110.562H92.1346V106.877Z" fill="black"/>
<path d="M95.8202 106.877H92.1348V110.562H95.8202V106.877Z" fill="black"/>
<path d="M106.877 106.877H103.191V110.562H106.877V106.877Z" fill="black"/>
<path d="M121.619 106.877H117.934V110.562H121.619V106.877Z" fill="black"/>
<path d="M125.305 106.877H121.619V110.562H125.305V106.877Z" fill="black"/>
<path d="M136.359 106.877H132.674V110.562H136.359V106.877Z" fill="black"/>
<path d="M33.1678 110.562H29.4824V114.248H33.1678V110.562Z" fill="black"/>
<path d="M40.5389 110.562H36.8535V114.248H40.5389V110.562Z" fill="black"/>
<path d="M51.5956 110.562H47.9102V114.248H51.5956V110.562Z" fill="black"/>
<path d="M62.6522 110.562H58.9668V114.248H62.6522V110.562Z" fill="black"/>
<path d="M66.3377 110.562H62.6523V114.248H66.3377V110.562Z" fill="black"/>
<path d="M81.078 110.562H77.3926V114.248H81.078V110.562Z" fill="black"/>
<path d="M88.4491 110.562H84.7637V114.248H88.4491V110.562Z" fill="black"/>
<path d="M92.1346 110.562H88.4492V114.248H92.1346V110.562Z" fill="black"/>
<path d="M106.877 110.562H103.191V114.248H106.877V110.562Z" fill="black"/>
<path d="M114.248 110.562H110.562V114.248H114.248V110.562Z" fill="black"/>
<path d="M121.619 110.562H117.934V114.248H121.619V110.562Z" fill="black"/>
<path d="M125.305 110.562H121.619V114.248H125.305V110.562Z" fill="black"/>
<path d="M128.99 110.562H125.305V114.248H128.99V110.562Z" fill="black"/>
<path d="M136.359 110.562H132.674V114.248H136.359V110.562Z" fill="black"/>
<path d="M33.1678 114.248H29.4824V117.933H33.1678V114.248Z" fill="black"/>
<path d="M73.7088 114.248H70.0234V117.933H73.7088V114.248Z" fill="black"/>
<path d="M81.078 114.248H77.3926V117.933H81.078V114.248Z" fill="black"/>
<path d="M88.4491 114.248H84.7637V117.933H88.4491V114.248Z" fill="black"/>
<path d="M92.1346 114.248H88.4492V117.933H92.1346V114.248Z" fill="black"/>
<path d="M103.191 114.248H99.5059V117.933H103.191V114.248Z" fill="black"/>
<path d="M106.877 114.248H103.191V117.933H106.877V114.248Z" fill="black"/>
<path d="M121.619 114.248H117.934V117.933H121.619V114.248Z" fill="black"/>
<path d="M125.305 114.248H121.619V117.933H125.305V114.248Z" fill="black"/>
<path d="M132.674 114.248H128.988V117.933H132.674V114.248Z" fill="black"/>
<path d="M136.359 114.248H132.674V117.933H136.359V114.248Z" fill="black"/>
<path d="M47.91 117.934H44.2246V121.619H47.91V117.934Z" fill="black"/>
<path d="M55.2811 117.934H51.5957V121.619H55.2811V117.934Z" fill="black"/>
<path d="M70.0233 117.934H66.3379V121.619H70.0233V117.934Z" fill="black"/>
<path d="M77.3944 117.934H73.709V121.619H77.3944V117.934Z" fill="black"/>
<path d="M92.1346 117.934H88.4492V121.619H92.1346V117.934Z" fill="black"/>
<path d="M103.191 117.934H99.5059V121.619H103.191V117.934Z" fill="black"/>
<path d="M106.877 117.934H103.191V121.619H106.877V117.934Z" fill="black"/>
<path d="M110.562 117.934H106.877V121.619H110.562V117.934Z" fill="black"/>
<path d="M114.248 117.934H110.562V121.619H114.248V117.934Z" fill="black"/>
<path d="M117.933 117.934H114.248V121.619H117.933V117.934Z" fill="black"/>
<path d="M121.619 117.934H117.934V121.619H121.619V117.934Z" fill="black"/>
<path d="M40.5389 121.619H36.8535V125.305H40.5389V121.619Z" fill="black"/>
<path d="M44.2245 121.619H40.5391V125.305H44.2245V121.619Z" fill="black"/>
<path d="M47.91 121.619H44.2246V125.305H47.91V121.619Z" fill="black"/>
<path d="M51.5956 121.619H47.9102V125.305H51.5956V121.619Z" fill="black"/>
<path d="M58.9667 121.619H55.2812V125.305H58.9667V121.619Z" fill="black"/>
<path d="M66.3377 121.619H62.6523V125.305H66.3377V121.619Z" fill="black"/>
<path d="M70.0233 121.619H66.3379V125.305H70.0233V121.619Z" fill="black"/>
<path d="M73.7088 121.619H70.0234V125.305H73.7088V121.619Z" fill="black"/>
<path d="M77.3944 121.619H73.709V125.305H77.3944V121.619Z" fill="black"/>
<path d="M81.078 121.619H77.3926V125.305H81.078V121.619Z" fill="black"/>
<path d="M92.1346 121.619H88.4492V125.305H92.1346V121.619Z" fill="black"/>
<path d="M95.8202 121.619H92.1348V125.305H95.8202V121.619Z" fill="black"/>
<path d="M103.191 121.619H99.5059V125.305H103.191V121.619Z" fill="black"/>
<path d="M121.619 121.619H117.934V125.305H121.619V121.619Z" fill="black"/>
<path d="M125.305 121.619H121.619V125.305H125.305V121.619Z" fill="black"/>
<path d="M136.359 121.619H132.674V125.305H136.359V121.619Z" fill="black"/>
<path d="M33.1678 125.305H29.4824V128.99H33.1678V125.305Z" fill="black"/>
<path d="M36.8534 125.305H33.168V128.99H36.8534V125.305Z" fill="black"/>
<path d="M44.2245 125.305H40.5391V128.99H44.2245V125.305Z" fill="black"/>
<path d="M55.2811 125.305H51.5957V128.99H55.2811V125.305Z" fill="black"/>
<path d="M66.3377 125.305H62.6523V128.99H66.3377V125.305Z" fill="black"/>
<path d="M70.0233 125.305H66.3379V128.99H70.0233V125.305Z" fill="black"/>
<path d="M77.3944 125.305H73.709V128.99H77.3944V125.305Z" fill="black"/>
<path d="M81.078 125.305H77.3926V128.99H81.078V125.305Z" fill="black"/>
<path d="M84.7635 125.305H81.0781V128.99H84.7635V125.305Z" fill="black"/>
<path d="M92.1346 125.305H88.4492V128.99H92.1346V125.305Z" fill="black"/>
<path d="M121.619 125.305H117.934V128.99H121.619V125.305Z" fill="black"/>
<path d="M125.305 125.305H121.619V128.99H125.305V125.305Z" fill="black"/>
<path d="M128.99 125.305H125.305V128.99H128.99V125.305Z" fill="black"/>
<path d="M132.674 125.305H128.988V128.99H132.674V125.305Z" fill="black"/>
<path d="M136.359 125.305H132.674V128.99H136.359V125.305Z" fill="black"/>
<path d="M51.5956 128.988H47.9102V132.674H51.5956V128.988Z" fill="black"/>
<path d="M58.9667 128.988H55.2812V132.674H58.9667V128.988Z" fill="black"/>
<path d="M62.6522 128.988H58.9668V132.674H62.6522V128.988Z" fill="black"/>
<path d="M73.7088 128.988H70.0234V132.674H73.7088V128.988Z" fill="black"/>
<path d="M77.3944 128.988H73.709V132.674H77.3944V128.988Z" fill="black"/>
<path d="M88.4491 128.988H84.7637V132.674H88.4491V128.988Z" fill="black"/>
<path d="M92.1346 128.988H88.4492V132.674H92.1346V128.988Z" fill="black"/>
<path d="M99.5057 128.988H95.8203V132.674H99.5057V128.988Z" fill="black"/>
<path d="M106.877 128.988H103.191V132.674H106.877V128.988Z" fill="black"/>
<path d="M110.562 128.988H106.877V132.674H110.562V128.988Z" fill="black"/>
<path d="M114.248 128.988H110.562V132.674H114.248V128.988Z" fill="black"/>
<path d="M125.305 128.988H121.619V132.674H125.305V128.988Z" fill="black"/>
<path d="M44.2245 132.674H40.5391V136.359H44.2245V132.674Z" fill="black"/>
<path d="M51.5956 132.674H47.9102V136.359H51.5956V132.674Z" fill="black"/>
<path d="M55.2811 132.674H51.5957V136.359H55.2811V132.674Z" fill="black"/>
<path d="M58.9667 132.674H55.2812V136.359H58.9667V132.674Z" fill="black"/>
<path d="M62.6522 132.674H58.9668V136.359H62.6522V132.674Z" fill="black"/>
<path d="M66.3377 132.674H62.6523V136.359H66.3377V132.674Z" fill="black"/>
<path d="M73.7088 132.674H70.0234V136.359H73.7088V132.674Z" fill="black"/>
<path d="M92.1346 132.674H88.4492V136.359H92.1346V132.674Z" fill="black"/>
<path d="M106.877 132.674H103.191V136.359H106.877V132.674Z" fill="black"/>
<path d="M110.562 132.674H106.877V136.359H110.562V132.674Z" fill="black"/>
<path d="M125.305 132.674H121.619V136.359H125.305V132.674Z" fill="black"/>
<path d="M136.359 132.674H132.674V136.359H136.359V132.674Z" fill="black"/>
<path d="M12.898 0.251953C5.91407 0.251953 0.251953 5.91407 0.251953 12.898C0.251953 19.8818 5.91407 25.544 12.898 25.544C19.8818 25.544 25.544 19.8818 25.544 12.898C25.544 5.91407 19.8818 0.251953 12.898 0.251953ZM12.898 21.7502C8.01685 21.7502 4.04575 17.7791 4.04575 12.898C4.04575 8.01685 8.01685 4.04575 12.898 4.04575C17.7791 4.04575 21.7502 8.01685 21.7502 12.898C21.7502 17.7791 17.7791 21.7502 12.898 21.7502Z" fill="black"/>
<path d="M123.46 0.251953C116.477 0.251953 110.814 5.91407 110.814 12.898C110.814 19.8818 116.477 25.544 123.46 25.544C130.444 25.544 136.106 19.8818 136.106 12.898C136.106 5.91407 130.444 0.251953 123.46 0.251953ZM123.46 21.7502C118.579 21.7502 114.608 17.7791 114.608 12.898C114.608 8.01685 118.579 4.04575 123.46 4.04575C128.342 4.04575 132.313 8.01685 132.313 12.898C132.313 17.7791 128.342 21.7502 123.46 21.7502Z" fill="black"/>
<path d="M12.898 110.814C5.91407 110.814 0.251953 116.477 0.251953 123.46C0.251953 130.444 5.91407 136.106 12.898 136.106C19.8818 136.106 25.544 130.444 25.544 123.46C25.544 116.477 19.8818 110.814 12.898 110.814ZM12.898 132.313C8.01685 132.313 4.04575 128.342 4.04575 123.46C4.04575 118.579 8.01685 114.608 12.898 114.608C17.7791 114.608 21.7502 118.579 21.7502 123.46C21.7502 128.342 17.7791 132.313 12.898 132.313Z" fill="black"/>
<path d="M12.7908 18.2105C15.784 18.2105 18.2105 15.784 18.2105 12.7908C18.2105 9.79758 15.784 7.37109 12.7908 7.37109C9.79758 7.37109 7.37109 9.79758 7.37109 12.7908C7.37109 15.784 9.79758 18.2105 12.7908 18.2105Z" fill="black"/>
<path d="M123.353 18.2105C126.347 18.2105 128.773 15.784 128.773 12.7908C128.773 9.79758 126.347 7.37109 123.353 7.37109C120.36 7.37109 117.934 9.79758 117.934 12.7908C117.934 15.784 120.36 18.2105 123.353 18.2105Z" fill="black"/>
<path d="M12.7908 128.773C15.784 128.773 18.2105 126.347 18.2105 123.353C18.2105 120.36 15.784 117.934 12.7908 117.934C9.79758 117.934 7.37109 120.36 7.37109 123.353C7.37109 126.347 9.79758 128.773 12.7908 128.773Z" fill="black"/>
<defs>
<clipPath id="clip0_9528_21358">
<rect width="30" height="28.5484" fill="white" transform="translate(53 54)"/>
</clipPath>
</defs>
</svg>
