<svg width="224" height="28" viewBox="0 0 224 28" fill="none" xmlns="http://www.w3.org/2000/svg">
<g clip-path="url(#clip0_6081_18319)">
<path d="M24.5287 14.156C24.5423 15.9253 24.3328 17.6892 23.9051 19.407C23.5551 20.8808 22.9392 22.2798 22.0872 23.5367C21.3153 24.6539 20.286 25.573 19.0843 26.2178C18.1834 26.6897 17.2005 26.9884 16.1875 27.0981C13.4746 24.6271 14.6284 17.736 17.5034 17.4024C16.2561 20.8001 17.8557 22.8634 19.2122 22.9838C22.0466 23.2371 24.6753 18.5113 24.4913 12.7383C24.5194 13.2047 24.5287 13.6742 24.5287 14.156Z" fill="#CCBEE6"/>
<path d="M26.1377 23.5768C23.2284 26.7459 18.9658 28.6363 16.9078 27.5923C16.6429 27.4623 16.3999 27.2924 16.1875 27.0888C17.2005 26.9791 18.1835 26.6804 19.0843 26.2085C20.286 25.5636 21.3153 24.6446 22.0872 23.5274C22.9412 22.278 23.5613 20.8864 23.9176 19.4193C24.3453 17.7015 24.5548 15.9376 24.5412 14.1683C24.5412 13.6865 24.5412 13.217 24.5038 12.7506V12.7351C24.4739 11.8313 24.3759 10.931 24.2107 10.0417C23.4529 5.97374 21.1611 1.21699 19.022 0C19.535 0.134907 20.0382 0.304151 20.5281 0.506564C20.5505 0.507594 20.5722 0.51511 20.5904 0.528185C24.3396 2.0962 27.3102 5.0699 28.8537 8.8C30.8119 13.6062 29.7424 19.6664 26.1377 23.5768Z" fill="white"/>
<path d="M12.3134 10.5906C13.5607 7.2115 11.961 5.13273 10.6046 5.01227C7.86372 4.76516 5.30366 9.17597 5.30366 14.6802C5.30366 14.5072 5.30366 14.3343 5.30366 14.1551C5.28697 12.3625 5.49541 10.5748 5.92419 8.83312C6.29429 7.33501 6.92759 5.91307 7.79512 4.63234C8.5699 3.48738 9.602 2.53585 10.8104 1.85242C11.6975 1.3633 12.6716 1.04864 13.6792 0.925781C16.3297 3.41227 15.1759 10.2632 12.3134 10.5906Z" fill="#CCBEE6"/>
<path d="M10.8113 27.9994C10.4589 27.9006 10.1128 27.7987 9.77605 27.6906L9.68562 27.6566C9.62014 27.635 9.5453 27.6072 9.47358 27.5763L9.26155 27.4898C5.50503 25.9166 2.52824 22.9368 0.97957 19.1994C-0.517172 15.5516 -0.267715 11.1871 1.5159 7.58555C1.5845 7.44346 1.65622 7.30447 1.72794 7.16856C1.88073 6.89057 2.03976 6.61566 2.21126 6.35312C2.52923 5.85573 2.87485 5.37623 3.24651 4.91682C3.37124 4.76547 3.49909 4.60794 3.63317 4.46895C3.64617 4.44933 3.66191 4.43165 3.67994 4.41644L3.74543 4.34231C6.66096 1.23497 10.8799 -0.618312 12.9067 0.388638C13.1832 0.532205 13.4382 0.713081 13.6645 0.926089C12.6569 1.04895 11.6827 1.3636 10.7957 1.85273C9.59295 2.53808 8.56633 3.48947 7.79599 4.63265C6.92846 5.91338 6.29516 7.33531 5.92506 8.83342C5.49523 10.575 5.28575 12.3627 5.30141 14.1554C5.30141 14.3346 5.30141 14.5076 5.30141 14.6805C5.30141 14.8535 5.30141 14.9894 5.30141 15.1438C5.3141 15.7337 5.35886 16.3225 5.4355 16.9076C5.45421 17.0991 5.48227 17.2813 5.51345 17.4697C5.54464 17.6581 5.56646 17.7971 5.59453 17.9639C5.59453 18.0381 5.62259 18.1153 5.63818 18.1894C5.7099 18.6095 5.80657 19.0172 5.90635 19.4249C6.00613 19.8327 6.12462 20.2064 6.25559 20.5771C6.26521 20.617 6.27772 20.6562 6.29301 20.6944C7.35944 23.9377 9.13058 27.045 10.8113 27.9994Z" fill="white"/>
<path d="M198.401 28H195.906L207.824 14.19L196.951 0H202.601L210.808 10.749L220.06 0H222.573L211.971 12.2903L224.014 28H218.311L208.975 15.7313L198.401 28Z" fill="white"/>
<path d="M66.2468 0V20.4788H66.0348L49.3492 0H44.8496V27.9938H47.0012V5.89035H47.1727L65.3207 27.9938H68.3391V0H66.2468Z" fill="white"/>
<path d="M87.5073 27.9991C85.4993 28.0151 83.508 27.6372 81.6482 26.8872C79.8908 26.1841 78.286 25.1533 76.921 23.8509C75.5833 22.5667 74.5105 21.0372 73.7622 19.3474C72.9914 17.6146 72.5993 15.7398 72.6116 13.8462C72.6054 12.5924 72.7808 11.3442 73.1324 10.1397C73.471 8.97511 73.9671 7.86128 74.6073 6.82849C75.2527 5.80578 76.0306 4.87119 76.921 4.04856C77.8272 3.20546 78.8371 2.479 79.9269 1.8864C81.0532 1.27751 82.2514 0.809573 83.4942 0.493351C87.4035 -0.513253 91.5527 -0.0155032 95.1064 1.8864C97.2789 3.05361 99.111 4.7557 100.426 6.82849C101.747 8.9299 102.442 11.3583 102.431 13.8339C102.436 15.1091 102.259 16.3787 101.907 17.6053C101.561 18.7888 101.057 19.9211 100.407 20.9721C99.1083 23.0888 97.2833 24.8402 95.1064 26.0594C93.9787 26.6857 92.7746 27.1663 91.5236 27.4895C90.2129 27.8319 88.8628 28.0032 87.5073 27.9991ZM87.5073 26.6648C88.9359 26.694 90.3486 26.3646 91.614 25.7072C92.8123 25.0592 93.8415 24.1433 94.62 23.0323C95.4772 21.8007 96.1026 20.4257 96.4659 18.9737C96.894 17.2979 97.1036 15.5748 97.0896 13.8462C97.1044 12.1381 96.8947 10.4352 96.4659 8.78061C96.1039 7.35674 95.478 6.01191 94.62 4.81459C93.8366 3.73116 92.8069 2.84552 91.614 2.22926C90.3413 1.59481 88.9318 1.27677 87.5073 1.30262C86.0696 1.27458 84.6465 1.59256 83.3601 2.22926C82.1698 2.84431 81.1439 3.73036 80.3666 4.81459C79.5145 6.01252 78.8959 7.3576 78.5425 8.78061C78.1153 10.4355 77.9057 12.1382 77.9188 13.8462C77.9064 15.5747 78.116 17.2976 78.5425 18.9737C78.8972 20.4249 79.5153 21.8001 80.3666 23.0323C81.1389 24.1442 82.1643 25.0605 83.3601 25.7072C84.6391 26.3671 86.0656 26.6965 87.5073 26.6648Z" fill="white"/>
<path d="M106.697 -0.00118426H118.082C119.482 -0.0147959 120.879 0.152377 122.235 0.496113C123.388 0.779852 124.484 1.25392 125.478 1.89843C126.333 2.45411 127.05 3.19307 127.577 4.06059C128.072 4.90456 128.329 5.86454 128.322 6.84051C128.331 7.53728 128.252 8.23244 128.088 8.91001C127.93 9.51986 127.647 10.0908 127.256 10.5872C126.807 11.1597 126.27 11.6589 125.665 12.0668C124.873 12.5999 124.039 13.0698 123.171 13.4722V13.5556C124.115 13.6916 125.034 13.9621 125.899 14.3587C126.673 14.7131 127.377 15.2028 127.976 15.8042C128.554 16.3918 129.008 17.0881 129.311 17.8521C129.629 18.6706 129.788 19.5417 129.778 20.4189C129.784 21.4473 129.547 22.4628 129.086 23.3841C128.612 24.3213 127.935 25.143 127.103 25.7903C126.171 26.5116 125.114 27.0589 123.985 27.4058C122.664 27.8167 121.287 28.0169 119.903 27.9988H106.697V-0.00118426ZM111.453 12.6042H117.505C118.368 12.6194 119.228 12.4834 120.043 12.2027C120.736 11.9625 121.373 11.5852 121.914 11.0938C122.425 10.6253 122.822 10.0489 123.077 9.40731C123.348 8.73096 123.485 8.00968 123.483 7.28221C123.493 6.51494 123.333 5.75476 123.015 5.05519C122.686 4.36697 122.183 3.77441 121.556 3.33472C120.796 2.81258 119.941 2.44029 119.039 2.2382C117.838 1.96242 116.608 1.83276 115.375 1.8521H111.453V12.6042ZM111.453 25.9509H116.588C117.798 25.9707 119.005 25.8389 120.18 25.5587C121.08 25.3498 121.933 24.9781 122.697 24.4621C123.325 24.0278 123.832 23.4421 124.169 22.7602C124.489 22.084 124.652 21.3451 124.646 20.598C124.654 19.7559 124.51 18.9192 124.222 18.127C123.932 17.3626 123.451 16.6835 122.825 16.1533C122.08 15.5427 121.216 15.0906 120.286 14.8251C119.035 14.4739 117.738 14.3104 116.439 14.3401H111.449L111.453 25.9509Z" fill="white"/>
<path d="M135.73 0H140.483V28H135.73V0Z" fill="white"/>
<path d="M169.358 0V1.81622H159.127V28H154.371V1.81622H144.141V0H169.358Z" fill="white"/>
<path d="M192.668 0V1.81622H177.766V11.8239H187.745V13.6402H177.766V26.1838H192.668V28H173.023V0H192.668Z" fill="white"/>
</g>
<defs>
<clipPath id="clip0_6081_18319">
<rect width="224" height="28" fill="white"/>
</clipPath>
</defs>
</svg>
