<svg width="40" height="40" viewBox="0 0 40 40" fill="none" xmlns="http://www.w3.org/2000/svg">
<g id="Miket">
<path id="XMLID 30" d="M20 40C31.0457 40 40 31.0457 40 20C40 8.95431 31.0457 0 20 0C8.9543 0 0 8.95431 0 20C0 31.0457 8.9543 40 20 40Z" fill="#00B0FF"/>
<path id="XMLID 29" d="M7.72266 17.7905V25.7369C7.72266 26.6967 8.50391 27.5003 9.48605 27.5003H9.53069C10.4905 27.5003 11.2941 26.719 11.2941 25.7369V17.9467C11.2941 16.0047 12.8789 14.4199 14.8209 14.4199C16.7628 14.4199 18.3477 15.9824 18.3477 17.9467V24.5092C18.3477 25.4914 19.1512 26.2949 20.1334 26.2949H20.178C21.1602 26.2949 21.9637 25.4914 21.9637 24.5092V17.9467C21.9637 16.0047 23.5486 14.4199 25.4905 14.4199C27.4325 14.4199 29.0173 16.0047 29.0173 17.9467V25.7146C29.0173 26.6967 29.8209 27.5003 30.803 27.5003H30.8477C31.8298 27.5003 32.6334 26.6967 32.6334 25.7146V17.6789C32.6334 17.5896 32.6334 17.5003 32.6111 17.411C32.3432 13.728 29.2628 10.8262 25.5128 10.8262C23.3923 10.8262 21.4727 11.7637 20.178 13.2369C18.8834 11.7637 16.9637 10.8262 14.8432 10.8262C11.0262 10.8262 7.90123 13.8396 7.74498 17.6119C7.72266 17.6789 7.72266 17.7458 7.72266 17.7905Z" fill="white"/>
<path id="XMLID 28" d="M14.5319 28.617C15.8042 30.4474 17.7239 31.2509 19.9783 31.2509C22.2328 31.2509 24.1524 30.4251 25.4248 28.617C25.4248 28.617 25.581 28.3715 25.4694 28.2152C25.3801 28.0813 25.1346 28.3492 25.1346 28.3492C24.1524 29.4206 22.0989 30.1126 19.9783 30.1126C17.8578 30.1126 15.8265 29.4206 14.8221 28.3492C14.8221 28.3492 14.5542 28.0813 14.4873 28.2152C14.3533 28.3715 14.5096 28.617 14.5319 28.617Z" fill="white"/>
</g>
</svg>
