<svg width="40" height="40" viewBox="0 0 40 40" fill="none" xmlns="http://www.w3.org/2000/svg">
<path id="Logo" d="M39.2111 13.1429C38.6333 12.7143 37.4778 12.1429 35.1667 11.5714C34.4444 11.4286 33.7222 11.2857 32.8556 11.1429C31.7 11 30.5444 10.8571 28.9556 10.7143H28.8111C28.5222 10 28.2333 9.28571 27.9444 8.57143C27.8 8.14286 27.6556 7.71429 27.3667 7.28571V7.14286C26.7889 5.57143 26.0667 4 24.9111 2.57143C23.4667 0.857143 21.7333 0 20 0C18.2667 0 16.5333 0.857143 15.2333 2.42857C13.9333 3.85714 13.3556 5.57143 12.6333 7.14286V7.28571C12.4889 7.71429 12.2 8.14286 12.0556 8.57143C11.7667 9.28571 11.4778 10 11.1889 10.7143H11.0444C9.6 10.8571 8.3 11 7.14444 11.1429C6.27778 11.2857 5.41111 11.4286 4.83333 11.5714C2.52222 12.1429 1.36667 12.7143 0.788889 13.1429C0.644444 13.2857 0.5 13.5714 0.5 13.8571L0.644444 15.2857C0.933333 17.4286 1.22222 19.8571 1.8 22.4286C2.23333 24.4286 2.66667 26.4286 3.38889 28.2857C3.67778 29 3.96667 29.7143 4.25556 30.4286C6.56667 35 10.7556 38.4286 15.9556 39.5714C17.2556 39.8571 18.5556 40 20 40C21.3 40 22.7444 39.8571 24.0444 39.5714C29.2444 38.4286 33.5778 34.8571 35.8889 30.1429C36.1778 29.5714 36.4667 29 36.6111 28.4286C38.2 24.1429 38.7778 19.5714 39.3556 15.8571L39.5 13.8571C39.5 13.5714 39.3556 13.2857 39.2111 13.1429ZM20 10.2857C18.1222 10.2857 16.5333 10.2857 15.0889 10.4286C15.2333 10.2857 15.2333 10 15.3778 9.85714C15.5222 9.42857 15.8111 9 15.9556 8.57143C16.3889 7.57143 16.8222 6.57143 17.2556 5.71429C17.5444 5.28571 17.6889 5 17.9778 4.57143C18.4111 4.14286 19.1333 3.42857 20.1444 3.42857C21.1556 3.42857 21.8778 4.14286 22.3111 4.57143C22.6 4.85714 22.8889 5.28571 23.0333 5.71429C23.4667 6.57143 23.9 7.57143 24.3333 8.57143C24.4778 9 24.6222 9.42857 24.9111 9.85714C25.0556 10 25.0556 10.2857 25.2 10.4286C23.4667 10.4286 21.8778 10.2857 20 10.2857Z" fill="url(#paint0_linear_6081_18300)"/>
<defs>
<linearGradient id="paint0_linear_6081_18300" x1="20" y1="0" x2="20" y2="40" gradientUnits="userSpaceOnUse">
<stop stop-color="#009955"/>
<stop offset="0.0001" stop-color="#95D601"/>
<stop offset="1" stop-color="#009856"/>
</linearGradient>
</defs>
</svg>
